<?xml version="1.0" encoding="utf-8"?>
<!-- Generator: Adobe Illustrator 22.1.0, SVG Export Plug-In . SVG Version: 6.00 Build 0)  -->
<svg version="1.1" id="レイヤー_1" xmlns="http://www.w3.org/2000/svg" xmlns:xlink="http://www.w3.org/1999/xlink" x="0px"
	 y="0px" viewBox="0 0 1600 1600" style="enable-background:new 0 0 1600 1600;" xml:space="preserve">
<style type="text/css">
	.st0{fill:#C4321E;}
	.st1{fill:#E4A952;}
</style>
<g>
	<path class="st0" d="M834.2,1305.7c0,0-16.2-13.6-38.5-26.9c-3.3-1.9-4.6-6-3.1-9.6c13.6-32.7,18.9-62.4,20.9-78.6
		c0.8-6.4-4.1-12-10.4-12h-81.5c-5.4,0-9.9,4.1-10.4,9.6c-1,10.7-3.7,21.5-7.6,32.3c-1.2,3.4-5.2,4.9-8.4,3.3
		c-20-10.3-36.4-17.8-37.1-16.4c-3.1-1.7-6.9-0.8-8.4,2l-37.8,67.7c-1.7,3.2,0.2,7.3,3.9,8.7c9.7,3.7,21.4,8.5,31.3,12.8
		c3.7,1.6,4.8,6.4,2.3,9.5c-30.6,37.5-59.7,61.3-71.5,71.1c-2.5,2.1-2.8,5.9-0.6,8.3c4.3,4.8,12.6,11.5,25,11.5
		c83.5,0,104.8-16.6,135.5-47.2c2-2,5.1-2.3,7.4-0.8c14.9,9.6,27.6,18.3,41.8,29.1c3.2,2.4,7.6,1.8,9.3-1.4l39.3-65.6
		C836.9,1310.6,836.6,1307.4,834.2,1305.7z"/>
	<path class="st0" d="M358.4,1217.4h-15.3c-1.3,0-2.3-1.2-2.1-2.6c1.5-12.9,1.9-16.1,2.1-23.3c0.1-5.2-3.8-9.6-8.6-9.6H226.6
		c-5,0-9,4.7-8.6,10.1c0.8,10.6,0.9,13.3,0.6,23.1c0,1.3-1,2.2-2.2,2.2h-41.3c-5,0-9,4.1-9,9.1v74.9c0,5.1,4,9.1,9,9.1H195
		c1.6,0,2.6,1.8,1.9,3.4c-16.2,34.6-37.3,56.6-48,66.3c-4.2,3.8-4.1,10.7,0,14.4c4.4,4,11,7.8,19.8,7.8
		c80.9,0,124.3-42.8,147.5-90.7c0.4-0.8,1.1-1.2,1.9-1.2h40.2c5,0,9-4.1,9-9.1v-74.9C367.4,1221.5,363.4,1217.4,358.4,1217.4z"/>
	<path class="st0" d="M590.8,1301.5v-74.9c0-5.1-4-9.1-9-9.1h-15.3c-1.3,0-2.3-1.2-2.1-2.6c1.5-12.9,1.9-16.1,2.1-23.3
		c0.1-5.2-3.8-9.6-8.6-9.6H449.9c-5,0-9,4.7-8.6,10.1c0.8,10.6,0.9,13.3,0.6,23.1c0,1.3-1,2.2-2.2,2.2h-41.3c-5,0-9,4.1-9,9.1v74.9
		c0,5.1,4,9.1,9,9.1h19.9c1.6,0,2.6,1.8,1.9,3.4c-16.2,34.6-37.3,56.6-48,66.3c-4.2,3.8-4.1,10.7,0,14.4c4.4,4,11,7.8,19.8,7.8
		c80.9,0,124.3-42.8,147.5-90.7c0.4-0.8,1.1-1.2,1.9-1.2h40.2C586.7,1310.6,590.8,1306.5,590.8,1301.5z"/>
	<g>
		<path class="st0" d="M1167.6,1314.4h-28.7c-1.7,0-3-1.4-3-3.1v-14.6c0-4.3-3.5-7.8-7.7-7.8h-28.4c-4.3,0-7.7,3.5-7.7,7.8v14.6
			c0,1.7-1.4,3.1-3,3.1h-10.5c-1.7,0-3,1.4-3,3.1v24.7c0,1.7,1.4,3.1,3,3.1h10.5c1.7,0,3,1.4,3,3.1v46.3c0,4.3,3.5,7.8,7.7,7.8h28.4
			c4.3,0,7.7-3.5,7.7-7.8v-46.3c0-1.7,1.4-3.1,3-3.1h15.5c1.7,0,3,1.4,3,3.1v4.7c0,1.7-1.4,3.1-3,3.1h-5.9c-1.7,0-3,1.4-3,3.1v11.1
			c0,1.7,1.4,3.1,3,3.1h19.1c14.2,0,25.7-11.7,25.7-26.1v-6.9C1193.4,1326.1,1181.8,1314.4,1167.6,1314.4z"/>
		<path class="st0" d="M1156.7,1288.9c-4.3,0-7.7,3.5-7.7,7.8v2.2c0,4.3,3.5,7.8,7.7,7.8h18.1c4.3,0,7.7-3.5,7.7-7.8v-2.2
			c0-4.3-3.5-7.8-7.7-7.8H1156.7z"/>
		<path class="st0" d="M1441.3,1252.7h-22.8c-5.8,0-10.8,3.9-12.4,9.5l-21.9,78.7c-1.3,4.6-7.7,4.5-8.8-0.1l-8.1-33.4
			c-3.4-13.8-5.8-23.5-16.7-23.5h-10.6c-5,0-9.7,2.5-12.5,6.6l-18.4,26.9c-3.9,5.6-12.5,1.6-10.9-5l28.3-117.6
			c2-8.2-4.2-16.2-12.5-16.2h-49c-6,0-11.2,4.2-12.5,10.1l-46.9,208c-0.7,2.9,1.5,5.7,4.5,5.7h60.7c11.9,0,13.9-2.3,18.7-9.6
			l25.2-39.1c2.6-2.5,6.9-1.2,7.7,2.3l8,36.7c1.2,5.7,6.2,9.7,11.9,9.7h29.1c27.4,0,51.5-18.6,58.8-45.4l23.8-87.8
			C1456,1260.9,1449.8,1252.7,1441.3,1252.7z"/>
		<path class="st0" d="M1037,1212h-59.4c-3.4,0-6.1-2.8-6.1-6.2v-14c0-7.2-5.8-13.1-12.9-13.1h-65.2c-7.1,0-12.9,5.8-12.9,13.1v14
			c0,3.4-2.7,6.2-6.1,6.2h-18.8c-3.4,0-6.1,2.8-6.1,6.2v26.4c0,3.4,2.7,6.2,6.1,6.2h18.8c3.4,0,6.1,2.8,6.1,6.2v32.1
			c0,14.4,11.5,26.1,25.7,26.1h71.3c5,0,9.1,4.2,9.1,9.3v19.5c0,5.1-4.1,9.3-9.1,9.3h-97.3c-7.1,0-12.9,5.8-12.9,13.1v23.2
			c0,7.2,5.8,13.1,12.9,13.1h112.6c31.4,0,56.9-25.9,56.9-57.8v-25.2c0-25.6-20.5-46.4-45.7-46.4h-26.5c-3.4,0-6.1-2.8-6.1-6.2
			v-10.1c0-3.4,2.7-6.2,6.1-6.2h59.4c7.1,0,12.9-5.8,12.9-13.1V1225C1049.9,1217.8,1044.1,1212,1037,1212z"/>
		<path class="st1" d="M1184.2,942.4c2.7,17.9,3.9,32.7,5,45.8c2.5,30.9,4.5,55.1,24.7,78.8c10.7,12.5,25.9,20.6,42.2,22.9l19.5,2.8
			l-6.6-29.4c-0.5-2.2,7.1,9.4,11.3,16c1.7,2.7,5,3.8,8.1,2.8c30.8-10.8,79.2-49.1,91.8-78.4c0.9-2.2,0.6-4.7-0.9-6.7
			c-4.9-6.5-16-21.1-15.8-20.9l34,22.7l7.4-38.7c9.6-69.3-85.9-105.7-124-117.4c-3.5-20-10.9-58.2-22.5-100.3
			c-21.9-79.9-47.9-112-77.3-140.4c195.5,75.5,345.5-194.6,236.1-373.7c-43.2-70.8-274.6,1.6-294.5,12.7
			c-31.7,17.6-69.7,18.6-101.7,1.5c-61.7-33-128.2-40.7-221.2-40.7s-159.4,7.7-221.2,40.7c-32,17.1-69.9,16.1-101.7-1.5
			c-19.9-11-251.2-83.5-294.5-12.7C73.4,407.3,223.4,677.4,418.8,601.9c-29.4,28.4-55.5,60.5-77.3,140.4
			c-11.5,42.1-19,80.3-22.5,100.3c-38,11.7-133.6,48.1-124,117.4l7.4,38.7l34-22.7c0.1-0.2-10.9,14.5-15.8,20.9
			c-1.5,1.9-1.8,4.5-0.9,6.7c12.5,29.3,60.9,67.6,91.8,78.4c3,1.1,6.3-0.1,8.1-2.8c4.3-6.6,11.8-18.2,11.3-16l-6.6,29.4l19.5-2.8
			c16.4-2.3,31.5-10.4,42.2-22.9c20.2-23.6,22.2-47.9,24.7-78.8c1.1-13.1,2.3-27.9,5-45.8c2.2-1.9,94.6-3.3,100.9-3.2
			c14.8,0.3,28.3-8.2,35.3-22c0,0,0,0,0,0c26.4,23.3,109,92.9,248.1,92.9s221.7-69.6,248.1-92.9c0,0,0,0,0,0
			c6.9,13.8,20.5,22.3,35.3,22C1089.6,939.1,1182,940.5,1184.2,942.4z M1176.3,596.6c0.1,0,0.1-0.1,0.2-0.1
			C1176.4,596.5,1176.3,596.6,1176.3,596.6C1176.3,596.6,1176.3,596.6,1176.3,596.6z M423.6,596.5c0,0,0.1,0.1,0.2,0.1c0,0,0,0,0,0
			C423.7,596.6,423.6,596.5,423.6,596.5z M646.7,750.1c0,14.9-12.1,27.5-26.4,27.5c-14.3,0-26.4-12.6-26.4-27.5l0-104.3
			c0-9.1,4.3-15.4,6.8-18.3c5.1-5.9,12.1-9.2,19.6-9.2c7.5,0,14.5,3.3,19.6,9.2c2.6,3,6.8,9.3,6.8,18.3L646.7,750.1z M649.3,551.7
			h-58c-16,0-22-15.5-8.5-21.7l39.5-18.4c7-3.3,16.3-2,21.3,2.9l18.5,18.4C669.9,540.7,662.4,551.7,649.3,551.7z M800,909.3
			c-38.7,0-70.1-13-70.1-29.1c0-2.5,3.4-4.6,9-6.3c12,8.8,34.9,14.8,61.1,14.8s49.1-6,61.1-14.8c5.7,1.7,9,3.8,9,6.3
			C870.1,896.3,838.7,909.3,800,909.3z M1006.1,750.1c0,14.9-12.1,27.5-26.4,27.5c-14.3,0-26.4-12.6-26.4-27.5l0-104.3
			c0-9.1,4.3-15.4,6.8-18.3c5.1-5.9,12.1-9.2,19.6-9.2c7.5,0,14.5,3.3,19.6,9.2c2.6,3,6.8,9.3,6.8,18.3L1006.1,750.1z M1008.7,551.7
			h-58c-13.1,0-20.6-11-12.8-18.8l18.5-18.4c5-4.9,14.2-6.2,21.3-2.9l39.5,18.4C1030.7,536.3,1024.7,551.7,1008.7,551.7z"/>
	</g>
</g>
</svg>
